<mxfile host="65bd71144e">
    <diagram id="s_qmEPPJ463J-enkpRBm" name="Page-1">
        <mxGraphModel dx="2236" dy="681" grid="1" gridSize="10" guides="1" tooltips="1" connect="1" arrows="1" fold="1" page="1" pageScale="1" pageWidth="850" pageHeight="1100" math="0" shadow="0">
            <root>
                <mxCell id="0"/>
                <mxCell id="1" parent="0"/>
                <mxCell id="40" value="" style="rounded=0;whiteSpace=wrap;html=1;" vertex="1" parent="1">
                    <mxGeometry x="-250" y="20" width="1050" height="620" as="geometry"/>
                </mxCell>
                <mxCell id="41" value="&lt;font&gt;&lt;span style=&quot;font-weight: 400;&quot;&gt;«interface»&lt;/span&gt;&lt;br style=&quot;scrollbar-color: light-dark(#e2e2e2, #4b4b4b)&lt;br/&gt;&#x9;&#x9;&#x9;&#x9;&#x9;light-dark(#fbfbfb, var(--dark-panel-color)); font-weight: 400;&quot;&gt;&lt;span style=&quot;font-weight: 400;&quot;&gt;IPaymentForm&lt;/span&gt;&lt;br&gt;&lt;/font&gt;" style="swimlane;whiteSpace=wrap;html=1;strokeColor=light-dark(#000000,#FFFFFF);startSize=40;labelBackgroundColor=none;fontColor=default;" vertex="1" parent="1">
                    <mxGeometry x="150" y="90" width="200" height="120" as="geometry"/>
                </mxCell>
                <mxCell id="42" value="" style="rounded=0;whiteSpace=wrap;html=1;" vertex="1" parent="41">
                    <mxGeometry y="40" width="200" height="20" as="geometry"/>
                </mxCell>
                <mxCell id="43" value="&lt;div&gt;&amp;nbsp; success(): void;&lt;/div&gt;&lt;div&gt;&amp;nbsp; error(): void;&lt;/div&gt;" style="rounded=0;whiteSpace=wrap;html=1;fontColor=default;" vertex="1" parent="41">
                    <mxGeometry y="60" width="200" height="60" as="geometry"/>
                </mxCell>
                <mxCell id="44" value="&lt;div&gt;&lt;span style=&quot;color: rgb(63, 63, 63); font-weight: 400;&quot;&gt;&lt;span style=&quot;color: rgb(63, 63, 63);&quot;&gt;«interface»&lt;/span&gt;&lt;br&gt;&lt;/span&gt;&lt;/div&gt;&lt;span style=&quot;color: rgb(63, 63, 63); font-weight: 400;&quot;&gt;IPaymentFactory&lt;/span&gt;" style="swimlane;whiteSpace=wrap;html=1;strokeColor=light-dark(#000000,#FFFFFF);startSize=40;labelBackgroundColor=none;fontColor=default;" vertex="1" parent="1">
                    <mxGeometry x="-210" y="90" width="250" height="120" as="geometry"/>
                </mxCell>
                <mxCell id="45" value="" style="rounded=0;whiteSpace=wrap;html=1;" vertex="1" parent="44">
                    <mxGeometry y="40" width="250" height="20" as="geometry"/>
                </mxCell>
                <mxCell id="46" value="&lt;div&gt;&lt;font color=&quot;#000000&quot;&gt;&amp;nbsp; getPaymentForm(): IPaymentForm;&lt;/font&gt;&lt;/div&gt;&lt;div&gt;&lt;font color=&quot;#000000&quot;&gt;&amp;nbsp; createValidator(): IPaymentValidator;&lt;/font&gt;&lt;/div&gt;" style="rounded=0;whiteSpace=wrap;html=1;fontColor=default;fontStyle=2" vertex="1" parent="44">
                    <mxGeometry y="60" width="250" height="60" as="geometry"/>
                </mxCell>
                <mxCell id="47" value="" style="endArrow=block;html=1;entryX=0.5;entryY=1;entryDx=0;entryDy=0;dashed=1;endFill=1;exitX=0.5;exitY=0;exitDx=0;exitDy=0;" edge="1" parent="1" source="49" target="43">
                    <mxGeometry width="50" height="50" relative="1" as="geometry">
                        <mxPoint x="250" y="280" as="sourcePoint"/>
                        <mxPoint x="260" y="280" as="targetPoint"/>
                        <Array as="points">
                            <mxPoint x="250" y="270"/>
                        </Array>
                    </mxGeometry>
                </mxCell>
                <mxCell id="48" value="" style="endArrow=open;html=1;entryX=0;entryY=0;entryDx=0;entryDy=0;dashed=1;endFill=0;exitX=1;exitY=0;exitDx=0;exitDy=0;" edge="1" parent="1" source="46" target="43">
                    <mxGeometry width="50" height="50" relative="1" as="geometry">
                        <mxPoint x="180" y="330" as="sourcePoint"/>
                        <mxPoint x="180" y="210" as="targetPoint"/>
                    </mxGeometry>
                </mxCell>
                <mxCell id="49" value="&lt;span style=&quot;font-weight: 400;&quot;&gt;&lt;i&gt;PayPalComponent&lt;/i&gt;&lt;/span&gt;" style="swimlane;whiteSpace=wrap;html=1;strokeColor=light-dark(#000000,#FFFFFF);startSize=40;labelBackgroundColor=none;fontColor=default;" vertex="1" parent="1">
                    <mxGeometry x="100" y="310" width="110" height="120" as="geometry"/>
                </mxCell>
                <mxCell id="50" value="" style="rounded=0;whiteSpace=wrap;html=1;" vertex="1" parent="49">
                    <mxGeometry y="40" width="110" height="20" as="geometry"/>
                </mxCell>
                <mxCell id="51" value="&lt;div style=&quot;scrollbar-color: light-dark(#e2e2e2, #4b4b4b)&lt;br/&gt;&#x9;&#x9;&#x9;&#x9;&#x9;light-dark(#fbfbfb, var(--dark-panel-color)); font-style: normal;&quot;&gt;&amp;nbsp; success(): void;&lt;/div&gt;&lt;div style=&quot;scrollbar-color: light-dark(#e2e2e2, #4b4b4b)&lt;br/&gt;&#x9;&#x9;&#x9;&#x9;&#x9;light-dark(#fbfbfb, var(--dark-panel-color)); font-style: normal;&quot;&gt;&amp;nbsp; error(): void;&lt;/div&gt;" style="rounded=0;whiteSpace=wrap;html=1;fontColor=default;fontStyle=2" vertex="1" parent="49">
                    <mxGeometry y="60" width="110" height="60" as="geometry"/>
                </mxCell>
                <mxCell id="52" value="&lt;span style=&quot;font-weight: 400;&quot;&gt;&lt;i&gt;CreditComponent&lt;/i&gt;&lt;/span&gt;" style="swimlane;whiteSpace=wrap;html=1;strokeColor=light-dark(#000000,#FFFFFF);startSize=40;labelBackgroundColor=none;fontColor=default;" vertex="1" parent="1">
                    <mxGeometry x="280" y="310" width="120" height="120" as="geometry"/>
                </mxCell>
                <mxCell id="53" value="" style="rounded=0;whiteSpace=wrap;html=1;" vertex="1" parent="52">
                    <mxGeometry y="40" width="120" height="20" as="geometry"/>
                </mxCell>
                <mxCell id="54" value="&lt;div style=&quot;scrollbar-color: light-dark(#e2e2e2, #4b4b4b)&lt;br/&gt;&#x9;&#x9;&#x9;&#x9;&#x9;light-dark(#fbfbfb, var(--dark-panel-color)); font-style: normal;&quot;&gt;&amp;nbsp; success(): void;&lt;/div&gt;&lt;div style=&quot;scrollbar-color: light-dark(#e2e2e2, #4b4b4b)&lt;br/&gt;&#x9;&#x9;&#x9;&#x9;&#x9;light-dark(#fbfbfb, var(--dark-panel-color)); font-style: normal;&quot;&gt;&amp;nbsp; error(): void;&lt;/div&gt;" style="rounded=0;whiteSpace=wrap;html=1;fontColor=default;fontStyle=2" vertex="1" parent="52">
                    <mxGeometry y="60" width="120" height="60" as="geometry"/>
                </mxCell>
                <mxCell id="55" value="&lt;span style=&quot;font-weight: 400;&quot;&gt;&lt;i&gt;CreditFactory&lt;/i&gt;&lt;/span&gt;" style="swimlane;whiteSpace=wrap;html=1;strokeColor=light-dark(#000000,#FFFFFF);startSize=40;labelBackgroundColor=none;fontColor=default;" vertex="1" parent="1">
                    <mxGeometry x="-60" y="310" width="130" height="120" as="geometry"/>
                </mxCell>
                <mxCell id="56" value="" style="rounded=0;whiteSpace=wrap;html=1;" vertex="1" parent="55">
                    <mxGeometry y="40" width="130" height="20" as="geometry"/>
                </mxCell>
                <mxCell id="57" value="&lt;div style=&quot;scrollbar-color: light-dark(#e2e2e2, #4b4b4b)&lt;br/&gt;&#x9;&#x9;&#x9;&#x9;&#x9;light-dark(#fbfbfb, var(--dark-panel-color));&quot;&gt;&lt;font style=&quot;scrollbar-color: light-dark(#e2e2e2, #4b4b4b)&lt;br/&gt;&#x9;&#x9;&#x9;&#x9;&#x9;light-dark(#fbfbfb, var(--dark-panel-color));&quot;&gt;&amp;nbsp; getPaymentForm();&lt;/font&gt;&lt;/div&gt;&lt;div style=&quot;scrollbar-color: light-dark(#e2e2e2, #4b4b4b)&lt;br/&gt;&#x9;&#x9;&#x9;&#x9;&#x9;light-dark(#fbfbfb, var(--dark-panel-color));&quot;&gt;&lt;font style=&quot;scrollbar-color: light-dark(#e2e2e2, #4b4b4b)&lt;br/&gt;&#x9;&#x9;&#x9;&#x9;&#x9;light-dark(#fbfbfb, var(--dark-panel-color));&quot;&gt;&amp;nbsp; createValidator();&lt;/font&gt;&lt;/div&gt;" style="rounded=0;whiteSpace=wrap;html=1;fontColor=default;fontStyle=2" vertex="1" parent="55">
                    <mxGeometry y="60" width="130" height="60" as="geometry"/>
                </mxCell>
                <mxCell id="58" value="&lt;span style=&quot;font-weight: 400;&quot;&gt;&lt;i&gt;PayPalFactory&lt;/i&gt;&lt;/span&gt;" style="swimlane;whiteSpace=wrap;html=1;strokeColor=light-dark(#000000,#FFFFFF);startSize=40;labelBackgroundColor=none;fontColor=default;" vertex="1" parent="1">
                    <mxGeometry x="-150" y="440" width="140" height="120" as="geometry"/>
                </mxCell>
                <mxCell id="59" value="" style="rounded=0;whiteSpace=wrap;html=1;" vertex="1" parent="58">
                    <mxGeometry y="40" width="140" height="20" as="geometry"/>
                </mxCell>
                <mxCell id="60" value="&lt;div style=&quot;scrollbar-color: light-dark(#e2e2e2, #4b4b4b)&lt;br/&gt;&#x9;&#x9;&#x9;&#x9;&#x9;light-dark(#fbfbfb, var(--dark-panel-color));&quot;&gt;&lt;font style=&quot;scrollbar-color: light-dark(#e2e2e2, #4b4b4b)&lt;br/&gt;&#x9;&#x9;&#x9;&#x9;&#x9;light-dark(#fbfbfb, var(--dark-panel-color));&quot;&gt;&amp;nbsp; getPaymentForm();&lt;/font&gt;&lt;/div&gt;&lt;div style=&quot;scrollbar-color: light-dark(#e2e2e2, #4b4b4b)&lt;br/&gt;&#x9;&#x9;&#x9;&#x9;&#x9;light-dark(#fbfbfb, var(--dark-panel-color));&quot;&gt;&lt;font style=&quot;scrollbar-color: light-dark(#e2e2e2, #4b4b4b)&lt;br/&gt;&#x9;&#x9;&#x9;&#x9;&#x9;light-dark(#fbfbfb, var(--dark-panel-color));&quot;&gt;&amp;nbsp; createValidator();&lt;/font&gt;&lt;/div&gt;" style="rounded=0;whiteSpace=wrap;html=1;fontColor=default;fontStyle=2" vertex="1" parent="58">
                    <mxGeometry y="60" width="140" height="60" as="geometry"/>
                </mxCell>
                <mxCell id="63" value="" style="endArrow=block;html=1;entryX=0.5;entryY=1;entryDx=0;entryDy=0;dashed=1;endFill=1;exitX=0.5;exitY=0;exitDx=0;exitDy=0;" edge="1" parent="1" source="52" target="41">
                    <mxGeometry width="50" height="50" relative="1" as="geometry">
                        <mxPoint x="165" y="320" as="sourcePoint"/>
                        <mxPoint x="260" y="220" as="targetPoint"/>
                        <Array as="points">
                            <mxPoint x="250" y="270"/>
                        </Array>
                    </mxGeometry>
                </mxCell>
                <mxCell id="121" value="&lt;font&gt;&lt;span style=&quot;font-weight: 400;&quot;&gt;«interface»&lt;/span&gt;&lt;br style=&quot;scrollbar-color: light-dark(#e2e2e2, #4b4b4b)&lt;br/&gt;&#x9;&#x9;&#x9;&#x9;&#x9;light-dark(#fbfbfb, var(--dark-panel-color)); font-weight: 400;&quot;&gt;&lt;span style=&quot;font-weight: 400;&quot;&gt;IPaymentValidator&lt;/span&gt;&lt;br&gt;&lt;/font&gt;" style="swimlane;whiteSpace=wrap;html=1;strokeColor=light-dark(#000000,#FFFFFF);startSize=40;labelBackgroundColor=none;fontColor=default;" vertex="1" parent="1">
                    <mxGeometry x="490" y="90" width="200" height="120" as="geometry"/>
                </mxCell>
                <mxCell id="122" value="" style="rounded=0;whiteSpace=wrap;html=1;" vertex="1" parent="121">
                    <mxGeometry y="40" width="200" height="20" as="geometry"/>
                </mxCell>
                <mxCell id="123" value="validate(data: any): boolean;" style="rounded=0;whiteSpace=wrap;html=1;fontColor=default;" vertex="1" parent="121">
                    <mxGeometry y="60" width="200" height="60" as="geometry"/>
                </mxCell>
                <mxCell id="124" value="" style="endArrow=block;html=1;entryX=0.5;entryY=1;entryDx=0;entryDy=0;dashed=1;endFill=1;exitX=0.534;exitY=0.015;exitDx=0;exitDy=0;exitPerimeter=0;" edge="1" parent="1" source="58" target="46">
                    <mxGeometry width="50" height="50" relative="1" as="geometry">
                        <mxPoint x="-110" y="300" as="sourcePoint"/>
                        <mxPoint x="-15" y="200" as="targetPoint"/>
                        <Array as="points">
                            <mxPoint x="-85" y="440"/>
                        </Array>
                    </mxGeometry>
                </mxCell>
                <mxCell id="125" value="" style="endArrow=block;html=1;dashed=1;endFill=1;exitX=0.5;exitY=0;exitDx=0;exitDy=0;entryX=0.5;entryY=1;entryDx=0;entryDy=0;" edge="1" parent="1" source="55" target="46">
                    <mxGeometry width="50" height="50" relative="1" as="geometry">
                        <mxPoint x="75" y="300" as="sourcePoint"/>
                        <mxPoint x="-15" y="200" as="targetPoint"/>
                        <Array as="points">
                            <mxPoint x="-85" y="250"/>
                        </Array>
                    </mxGeometry>
                </mxCell>
                <mxCell id="126" value="&lt;span style=&quot;font-weight: 400;&quot;&gt;&lt;i&gt;CodFactory&lt;/i&gt;&lt;/span&gt;" style="swimlane;whiteSpace=wrap;html=1;strokeColor=light-dark(#000000,#FFFFFF);startSize=40;labelBackgroundColor=none;fontColor=default;" vertex="1" parent="1">
                    <mxGeometry x="-240" y="310" width="140" height="120" as="geometry"/>
                </mxCell>
                <mxCell id="127" value="" style="rounded=0;whiteSpace=wrap;html=1;" vertex="1" parent="126">
                    <mxGeometry y="40" width="140" height="20" as="geometry"/>
                </mxCell>
                <mxCell id="128" value="&lt;div style=&quot;scrollbar-color: light-dark(#e2e2e2, #4b4b4b)&lt;br/&gt;&#x9;&#x9;&#x9;&#x9;&#x9;light-dark(#fbfbfb, var(--dark-panel-color));&quot;&gt;&lt;font style=&quot;scrollbar-color: light-dark(#e2e2e2, #4b4b4b)&lt;br/&gt;&#x9;&#x9;&#x9;&#x9;&#x9;light-dark(#fbfbfb, var(--dark-panel-color));&quot;&gt;&amp;nbsp; getPaymentForm();&lt;/font&gt;&lt;/div&gt;&lt;div style=&quot;scrollbar-color: light-dark(#e2e2e2, #4b4b4b)&lt;br/&gt;&#x9;&#x9;&#x9;&#x9;&#x9;light-dark(#fbfbfb, var(--dark-panel-color));&quot;&gt;&lt;font style=&quot;scrollbar-color: light-dark(#e2e2e2, #4b4b4b)&lt;br/&gt;&#x9;&#x9;&#x9;&#x9;&#x9;light-dark(#fbfbfb, var(--dark-panel-color));&quot;&gt;&amp;nbsp; createValidator():;&lt;/font&gt;&lt;/div&gt;" style="rounded=0;whiteSpace=wrap;html=1;fontColor=default;fontStyle=2" vertex="1" parent="126">
                    <mxGeometry y="60" width="140" height="60" as="geometry"/>
                </mxCell>
                <mxCell id="129" value="" style="endArrow=block;html=1;entryX=0.5;entryY=1;entryDx=0;entryDy=0;dashed=1;endFill=1;exitX=0.484;exitY=-0.008;exitDx=0;exitDy=0;exitPerimeter=0;" edge="1" parent="1" source="126" target="46">
                    <mxGeometry width="50" height="50" relative="1" as="geometry">
                        <mxPoint x="-76" y="300" as="sourcePoint"/>
                        <mxPoint x="-15" y="200" as="targetPoint"/>
                        <Array as="points">
                            <mxPoint x="-85" y="250"/>
                        </Array>
                    </mxGeometry>
                </mxCell>
                <mxCell id="130" value="" style="endArrow=open;html=1;entryX=0.5;entryY=0;entryDx=0;entryDy=0;dashed=1;endFill=0;exitX=0.5;exitY=0;exitDx=0;exitDy=0;" edge="1" parent="1" source="44" target="121">
                    <mxGeometry width="50" height="50" relative="1" as="geometry">
                        <mxPoint x="50" y="160" as="sourcePoint"/>
                        <mxPoint x="250" y="150" as="targetPoint"/>
                        <Array as="points">
                            <mxPoint x="-80" y="40"/>
                            <mxPoint x="590" y="40"/>
                        </Array>
                    </mxGeometry>
                </mxCell>
                <mxCell id="131" value="&lt;span style=&quot;font-weight: 400;&quot;&gt;&lt;i&gt;CodComponent&lt;/i&gt;&lt;/span&gt;" style="swimlane;whiteSpace=wrap;html=1;strokeColor=light-dark(#000000,#FFFFFF);startSize=40;labelBackgroundColor=none;fontColor=default;" vertex="1" parent="1">
                    <mxGeometry x="190" y="460" width="120" height="120" as="geometry"/>
                </mxCell>
                <mxCell id="132" value="" style="rounded=0;whiteSpace=wrap;html=1;" vertex="1" parent="131">
                    <mxGeometry y="40" width="120" height="20" as="geometry"/>
                </mxCell>
                <mxCell id="133" value="&lt;div style=&quot;scrollbar-color: light-dark(#e2e2e2, #4b4b4b)&lt;br/&gt;&#x9;&#x9;&#x9;&#x9;&#x9;light-dark(#fbfbfb, var(--dark-panel-color)); font-style: normal;&quot;&gt;&amp;nbsp; success(): void;&lt;/div&gt;&lt;div style=&quot;scrollbar-color: light-dark(#e2e2e2, #4b4b4b)&lt;br/&gt;&#x9;&#x9;&#x9;&#x9;&#x9;light-dark(#fbfbfb, var(--dark-panel-color)); font-style: normal;&quot;&gt;&amp;nbsp; error(): void;&lt;/div&gt;" style="rounded=0;whiteSpace=wrap;html=1;fontColor=default;fontStyle=2" vertex="1" parent="131">
                    <mxGeometry y="60" width="120" height="60" as="geometry"/>
                </mxCell>
                <mxCell id="134" value="" style="endArrow=block;html=1;entryX=0.5;entryY=1;entryDx=0;entryDy=0;dashed=1;endFill=1;exitX=0.5;exitY=0;exitDx=0;exitDy=0;" edge="1" parent="1" source="131" target="41">
                    <mxGeometry width="50" height="50" relative="1" as="geometry">
                        <mxPoint x="340" y="370" as="sourcePoint"/>
                        <mxPoint x="250" y="270" as="targetPoint"/>
                        <Array as="points">
                            <mxPoint x="250" y="330"/>
                        </Array>
                    </mxGeometry>
                </mxCell>
                <mxCell id="157" value="" style="endArrow=block;html=1;entryX=0.5;entryY=1;entryDx=0;entryDy=0;dashed=1;endFill=1;exitX=0.5;exitY=0;exitDx=0;exitDy=0;" edge="1" parent="1" source="158">
                    <mxGeometry width="50" height="50" relative="1" as="geometry">
                        <mxPoint x="590" y="280" as="sourcePoint"/>
                        <mxPoint x="590" y="210" as="targetPoint"/>
                        <Array as="points">
                            <mxPoint x="590" y="270"/>
                        </Array>
                    </mxGeometry>
                </mxCell>
                <mxCell id="158" value="&lt;span style=&quot;font-weight: 400;&quot;&gt;&lt;i&gt;PayPalValidator&lt;/i&gt;&lt;/span&gt;" style="swimlane;whiteSpace=wrap;html=1;strokeColor=light-dark(#000000,#FFFFFF);startSize=40;labelBackgroundColor=none;fontColor=default;" vertex="1" parent="1">
                    <mxGeometry x="440" y="310" width="110" height="120" as="geometry"/>
                </mxCell>
                <mxCell id="159" value="" style="rounded=0;whiteSpace=wrap;html=1;" vertex="1" parent="158">
                    <mxGeometry y="40" width="110" height="20" as="geometry"/>
                </mxCell>
                <mxCell id="160" value="&lt;div style=&quot;scrollbar-color: light-dark(#e2e2e2, #4b4b4b)&lt;br/&gt;&#x9;&#x9;&#x9;&#x9;&#x9;light-dark(#fbfbfb, var(--dark-panel-color)); font-style: normal;&quot;&gt;&lt;span style=&quot;color: rgb(0, 0, 0);&quot;&gt;validate(data: any): boolean;&lt;/span&gt;&lt;br&gt;&lt;/div&gt;" style="rounded=0;whiteSpace=wrap;html=1;fontColor=default;fontStyle=2" vertex="1" parent="158">
                    <mxGeometry y="60" width="110" height="60" as="geometry"/>
                </mxCell>
                <mxCell id="161" value="&lt;span style=&quot;font-weight: 400;&quot;&gt;&lt;i&gt;CreditValidator&lt;/i&gt;&lt;/span&gt;" style="swimlane;whiteSpace=wrap;html=1;strokeColor=light-dark(#000000,#FFFFFF);startSize=40;labelBackgroundColor=none;fontColor=default;" vertex="1" parent="1">
                    <mxGeometry x="620" y="310" width="120" height="120" as="geometry"/>
                </mxCell>
                <mxCell id="162" value="" style="rounded=0;whiteSpace=wrap;html=1;" vertex="1" parent="161">
                    <mxGeometry y="40" width="120" height="20" as="geometry"/>
                </mxCell>
                <mxCell id="163" value="&lt;div style=&quot;scrollbar-color: light-dark(#e2e2e2, #4b4b4b)&lt;br/&gt;&#x9;&#x9;&#x9;&#x9;&#x9;light-dark(#fbfbfb, var(--dark-panel-color)); font-style: normal;&quot;&gt;&lt;span style=&quot;color: rgb(0, 0, 0);&quot;&gt;validate(data: any): boolean;&lt;/span&gt;&lt;br&gt;&lt;/div&gt;" style="rounded=0;whiteSpace=wrap;html=1;fontColor=default;fontStyle=2" vertex="1" parent="161">
                    <mxGeometry y="60" width="120" height="60" as="geometry"/>
                </mxCell>
                <mxCell id="164" value="" style="endArrow=block;html=1;entryX=0.5;entryY=1;entryDx=0;entryDy=0;dashed=1;endFill=1;exitX=0.5;exitY=0;exitDx=0;exitDy=0;" edge="1" parent="1" source="161">
                    <mxGeometry width="50" height="50" relative="1" as="geometry">
                        <mxPoint x="505" y="320" as="sourcePoint"/>
                        <mxPoint x="590" y="210" as="targetPoint"/>
                        <Array as="points">
                            <mxPoint x="590" y="270"/>
                        </Array>
                    </mxGeometry>
                </mxCell>
                <mxCell id="165" value="&lt;span style=&quot;font-weight: 400;&quot;&gt;&lt;i&gt;CODValidator&lt;/i&gt;&lt;/span&gt;" style="swimlane;whiteSpace=wrap;html=1;strokeColor=light-dark(#000000,#FFFFFF);startSize=40;labelBackgroundColor=none;fontColor=default;" vertex="1" parent="1">
                    <mxGeometry x="530" y="460" width="120" height="120" as="geometry"/>
                </mxCell>
                <mxCell id="166" value="" style="rounded=0;whiteSpace=wrap;html=1;" vertex="1" parent="165">
                    <mxGeometry y="40" width="120" height="20" as="geometry"/>
                </mxCell>
                <mxCell id="167" value="&lt;div style=&quot;scrollbar-color: light-dark(#e2e2e2, #4b4b4b)&lt;br/&gt;&#x9;&#x9;&#x9;&#x9;&#x9;light-dark(#fbfbfb, var(--dark-panel-color)); font-style: normal;&quot;&gt;&lt;span style=&quot;color: rgb(0, 0, 0);&quot;&gt;validate(data: any): boolean;&lt;/span&gt;&lt;br&gt;&lt;/div&gt;" style="rounded=0;whiteSpace=wrap;html=1;fontColor=default;fontStyle=2" vertex="1" parent="165">
                    <mxGeometry y="60" width="120" height="60" as="geometry"/>
                </mxCell>
                <mxCell id="168" value="" style="endArrow=block;html=1;entryX=0.5;entryY=1;entryDx=0;entryDy=0;dashed=1;endFill=1;exitX=0.5;exitY=0;exitDx=0;exitDy=0;" edge="1" parent="1" source="165">
                    <mxGeometry width="50" height="50" relative="1" as="geometry">
                        <mxPoint x="680" y="370" as="sourcePoint"/>
                        <mxPoint x="590" y="210" as="targetPoint"/>
                        <Array as="points">
                            <mxPoint x="590" y="330"/>
                        </Array>
                    </mxGeometry>
                </mxCell>
            </root>
        </mxGraphModel>
    </diagram>
</mxfile>